<svg width="100.000000" height="100.000000" viewBox="0 0 100 100" fill="none" xmlns="http://www.w3.org/2000/svg">
    <defs>
        <clipPath id="clip164_190">
            <rect id="svg" width="100.000000" height="100.000000" fill="white" fill-opacity="0"/>
        </clipPath>
        <linearGradient x1="50.500000" y1="22.000000" x2="50.500000" y2="76.802132" id="paint_linear_164_192_0" gradientUnits="userSpaceOnUse">
            <stop stop-color="#2F2F2F"/>
            <stop offset="1.000000" stop-color="#724CD9"/>
        </linearGradient>
    </defs>
    <rect id="Rectangle 22" rx="15.000000" width="100.000000" height="100.000000" fill="#FFFFFF" fill-opacity="1.000000"/>
    <g clip-path="url(#clip164_190)">
        <path id="path" d="M75.95 33.28L66.53 23.86C65.26 22.66 63.75 22.04 62 22C60.26 21.95 58.72 22.49 57.38 23.62L26.45 54.56C25.3 55.71 24.65 57.1 24.49 58.72L23.01 73.05C22.91 74.12 23.24 75.04 24.01 75.8C24.68 76.47 25.5 76.8 26.45 76.8L41.09 75.49C42.71 75.33 44.1 74.68 45.25 73.53L76.19 42.59C77.44 41.27 78.04 39.7 77.99 37.89C77.95 36.07 77.26 34.53 75.95 33.28ZM40.47 68.62L30.16 69.58L31.09 59.27L50.51 40.08L59.79 49.37L40.47 68.62ZM64.26 44.76L55.05 35.55L61.75 28.67L71.13 38.06L64.26 44.76Z" fill="url(#paint_linear_164_192_0)" fill-opacity="1.000000" fill-rule="nonzero"/>
    </g>
</svg>
