<svg width="100.000000" height="100.000000" viewBox="0 0 100 100" fill="none" xmlns="http://www.w3.org/2000/svg">
    <defs>
        <clipPath id="clip308_906">
            <rect id="svg" width="76.000008" height="76.000000" transform="translate(12.000000 12.000000)" fill="white"
                  fill-opacity="0"/>
        </clipPath>
        <clipPath id="clip308_902">
            <rect id="svg" width="100.000000" height="100.000000" fill="white" fill-opacity="0"/>
        </clipPath>
        <linearGradient x1="50.500000" y1="21.000000" x2="50.500000" y2="78.000000" id="paint_linear_308_907_0"
                        gradientUnits="userSpaceOnUse">
            <stop stop-color="#2F2F2F"/>
            <stop offset="1.000000" stop-color="#724CD9"/>
        </linearGradient>
    </defs>
    <rect id="Rectangle 22" rx="15.000000" width="100.000000" height="100.000000" fill="#FFFFFF"
          fill-opacity="1.000000"/>
    <g clip-path="url(#clip308_902)">
        <g clip-path="url(#clip308_906)">
            <path id="path"
                  d="M50.5 21C34.76 21 22 33.76 22 49.5C22 65.23 34.76 78 50.5 78C66.23 78 79 65.23 79 49.5C79 33.76 66.23 21 50.5 21ZM50.5 72.3C37.9 72.3 27.7 62.09 27.7 49.5C27.7 44.22 29.49 39.38 32.51 35.53L64.46 67.48C60.48 70.61 55.56 72.31 50.5 72.3ZM68.48 63.46L36.53 31.51C40.51 28.38 45.43 26.68 50.5 26.7C63.09 26.7 73.3 36.9 73.3 49.5C73.3 54.77 71.5 59.61 68.48 63.46Z"
                  fill="url(#paint_linear_308_907_0)" fill-opacity="1.000000" fill-rule="nonzero"/>
        </g>
    </g>
</svg>
