<svg width="100.000000" height="100.000000" viewBox="0 0 100 100" fill="none" xmlns="http://www.w3.org/2000/svg">
    <defs>
        <clipPath id="clip296_6434">
            <rect id="svg" width="76.000000" height="76.000000" transform="translate(12.000000 12.000000)" fill="white"
                  fill-opacity="0"/>
        </clipPath>
        <clipPath id="clip296_6432">
            <rect id="svg" width="100.000000" height="100.000000" fill="white" fill-opacity="0"/>
        </clipPath>
        <linearGradient x1="50.500000" y1="21.000000" x2="50.500000" y2="78.000000" id="paint_linear_296_6435_0"
                        gradientUnits="userSpaceOnUse">
            <stop stop-color="#2F2F2F"/>
            <stop offset="1.000000" stop-color="#724CD9"/>
        </linearGradient>
    </defs>
    <rect id="Rectangle 22" rx="15.000000" width="100.000000" height="100.000000" fill="#FFFFFF"
          fill-opacity="1.000000"/>
    <g clip-path="url(#clip296_6432)">
        <g clip-path="url(#clip296_6434)">
            <path id="path"
                  d="M62.75 32.29C65.65 33.97 68.1 36.14 70.11 38.83C72.12 41.51 73.52 44.47 74.31 47.73C75.09 50.98 75.21 54.26 74.66 57.56C74.1 60.87 72.92 63.93 71.11 66.74C69.3 69.56 67 71.91 64.23 73.78C61.46 75.66 58.42 76.92 55.13 77.55C51.85 78.19 48.56 78.15 45.29 77.44C42.02 76.73 39.02 75.4 36.29 73.46C33.56 71.52 31.32 69.11 29.58 66.26C27.83 63.4 26.72 60.31 26.25 57C25.77 53.68 25.96 50.41 26.83 47.17C27.69 43.94 29.16 41 31.23 38.37C31.94 37.47 33.29 37.61 34 38.51C34.98 39.74 36.08 40.86 37.31 41.84C38.47 42.79 40.06 41.67 40.01 40.18C39.9 36.8 40.56 33.58 42.01 30.52C43.93 26.5 46.83 23.39 50.71 21.2C51.58 20.71 52.64 21.14 53.08 22.03C55.27 26.43 58.49 29.84 62.75 32.29ZM64.5 57C64.5 60.87 63.13 64.17 60.4 66.9C57.67 69.63 54.37 71 50.5 71C43.8 71 38.18 66.11 36.82 59.86C36.49 58.36 38.36 57.61 39.66 58.42C41.39 59.48 43.26 60.14 45.27 60.39C46.33 60.53 47.13 59.55 47.05 58.49C46.65 52.99 48.19 48.1 51.66 43.82C52.05 43.33 52.55 43.15 53.16 43.26C56.46 43.9 59.17 45.51 61.3 48.1C63.43 50.68 64.5 53.65 64.5 57Z"
                  fill="url(#paint_linear_296_6435_0)" fill-opacity="1.000000" fill-rule="evenodd"/>
        </g>
    </g>
</svg>
