<svg width="100.000000" height="100.000000" viewBox="0 0 100 100" fill="none" xmlns="http://www.w3.org/2000/svg">
    <defs>
        <clipPath id="clip282_2539">
            <rect id="Frame 8" width="76.000000" height="76.000000" transform="translate(12.000000 12.000000)"
                  fill="white" fill-opacity="0"/>
        </clipPath>
        <clipPath id="clip282_2537">
            <rect id="svg" width="100.000000" height="100.000000" fill="white" fill-opacity="0"/>
        </clipPath>
        <linearGradient x1="50.000000" y1="21.500000" x2="50.000000" y2="78.500000" id="paint_linear_282_2540_0"
                        gradientUnits="userSpaceOnUse">
            <stop stop-color="#2F2F2F"/>
            <stop offset="1.000000" stop-color="#724CD9"/>
        </linearGradient>
    </defs>
    <rect id="Rectangle 22" rx="15.000000" width="100.000000" height="100.000000" fill="#FFFFFF"
          fill-opacity="1.000000"/>
    <g clip-path="url(#clip282_2537)">
        <g clip-path="url(#clip282_2539)">
            <path id="path"
                  d="M33.37 21.5C30.09 21.5 27.29 22.65 24.97 24.97C22.65 27.29 21.5 30.09 21.5 33.37L21.5 66.62C21.5 69.9 22.65 72.7 24.97 75.02C27.29 77.34 30.09 78.5 33.37 78.5L66.62 78.5C69.9 78.5 72.7 77.34 75.02 75.02C77.34 72.7 78.5 69.9 78.5 66.62L78.5 33.37C78.5 30.09 77.34 27.29 75.02 24.97C72.7 22.65 69.9 21.5 66.62 21.5L33.37 21.5ZM38.12 35.75L61.87 35.75C63.45 35.75 64.25 36.54 64.25 38.12C64.25 39.7 63.45 40.5 61.87 40.5L38.12 40.5C36.54 40.5 35.75 39.7 35.75 38.12C35.75 36.54 36.54 35.75 38.12 35.75ZM38.12 47.62L52.37 47.62C53.95 47.62 54.75 48.41 54.75 50C54.75 51.58 53.95 52.37 52.37 52.37L38.12 52.37C36.54 52.37 35.75 51.58 35.75 50C35.75 48.41 36.54 47.62 38.12 47.62ZM38.12 59.5L61.87 59.5C63.45 59.5 64.25 60.29 64.25 61.87C64.25 63.45 63.45 64.25 61.87 64.25L38.12 64.25C36.54 64.25 35.75 63.45 35.75 61.87C35.75 60.29 36.54 59.5 38.12 59.5Z"
                  fill="url(#paint_linear_282_2540_0)" fill-opacity="1.000000" fill-rule="nonzero"/>
        </g>
    </g>
</svg>
