<svg width="100.000000" height="100.000000" viewBox="0 0 100 100" fill="none" xmlns="http://www.w3.org/2000/svg">
    <defs>
        <clipPath id="clip308_914">
            <rect id="Frame 10" width="76.000000" height="76.000000" transform="translate(12.000000 12.000000)"
                  fill="white" fill-opacity="0"/>
        </clipPath>
        <clipPath id="clip308_911">
            <rect id="svg" width="100.000000" height="100.000000" fill="white" fill-opacity="0"/>
        </clipPath>
        <linearGradient x1="50.500000" y1="21.000000" x2="50.500000" y2="78.002136" id="paint_linear_308_913_0"
                        gradientUnits="userSpaceOnUse">
            <stop stop-color="#2F2F2F"/>
            <stop offset="1.000000" stop-color="#724CD9"/>
        </linearGradient>
    </defs>
    <rect id="Rectangle 22" rx="15.000000" width="100.000000" height="100.000000" fill="#FFFFFF"
          fill-opacity="1.000000"/>
    <g clip-path="url(#clip308_911)">
        <rect id="Frame 10" width="76.000000" height="76.000000" transform="translate(12.000000 12.000000)"
              fill="#FFFFFF" fill-opacity="1.000000"/>
        <g clip-path="url(#clip308_914)">
            <path id="path"
                  d="M47.35 21C43.31 21 39.32 21.96 35.73 23.82C32.13 25.67 29.04 28.36 26.69 31.65C24.35 34.94 22.83 38.75 22.25 42.75C21.68 46.76 22.07 50.84 23.39 54.66C24.72 58.48 26.94 61.93 29.87 64.71C32.79 67.5 36.35 69.55 40.23 70.69C44.11 71.82 48.2 72.01 52.17 71.24C56.14 70.48 59.87 68.77 63.05 66.27L73.94 77.16C74.5 77.7 75.26 78 76.04 78C76.82 77.99 77.57 77.68 78.12 77.12C78.67 76.57 78.99 75.82 79 75.04C79 74.26 78.7 73.5 78.16 72.94L67.26 62.05C70.21 58.31 72.05 53.82 72.56 49.08C73.07 44.35 72.24 39.57 70.16 35.28C68.09 31 64.84 27.39 60.81 24.86C56.77 22.33 52.11 20.99 47.35 21ZM27.96 46.35C27.96 41.21 30 36.28 33.64 32.64C37.27 29 42.21 26.96 47.35 26.96C52.49 26.96 57.42 29 61.06 32.64C64.7 36.28 66.74 41.21 66.74 46.35C66.74 51.49 64.7 56.43 61.06 60.06C57.42 63.7 52.49 65.74 47.35 65.74C42.21 65.74 37.27 63.7 33.64 60.06C30 56.43 27.96 51.49 27.96 46.35Z"
                  fill="url(#paint_linear_308_913_0)" fill-opacity="1.000000" fill-rule="evenodd"/>
        </g>
    </g>
</svg>
