<svg width="100.000000" height="100.000000" viewBox="0 0 100 100" fill="none" xmlns="http://www.w3.org/2000/svg" xmlns:xlink="http://www.w3.org/1999/xlink">
    <defs>
        <clipPath id="clip157_189">
            <rect id="svg" width="100.000000" height="100.000000" fill="white" fill-opacity="0"/>
        </clipPath>
        <linearGradient x1="50.714252" y1="18.571411" x2="50.714252" y2="80.549431" id="paint_linear_157_188_0" gradientUnits="userSpaceOnUse">
            <stop stop-color="#2F2F2F"/>
            <stop offset="1.000000" stop-color="#724CD9"/>
        </linearGradient>
    </defs>
    <rect id="Rectangle 22" rx="15.000000" width="100.000000" height="100.000000" fill="#FFFFFF" fill-opacity="1.000000"/>
    <g clip-path="url(#clip157_189)">
        <path id="path" d="M28.33 18.57C25.24 18.57 22.6 19.66 20.42 21.84C18.23 24.03 17.14 26.67 17.14 29.76L17.14 60.75C17.14 63.84 18.23 66.47 20.42 68.66C22.6 70.84 25.24 71.94 28.33 71.94L64.48 71.94C67.57 71.94 70.21 70.84 72.4 68.66C74.58 66.47 75.67 63.84 75.67 60.75L75.67 29.76C75.67 26.67 74.58 24.03 72.4 21.84C70.21 19.66 67.57 18.57 64.48 18.57L28.33 18.57ZM37.8 53.86L37.8 34.93C37.8 33.9 38.25 33.15 39.14 32.66C40.04 32.17 40.91 32.2 41.77 32.75L57.67 42.94C58.2 43.28 58.47 43.76 58.47 44.39C58.47 45.02 58.2 45.5 57.67 45.84L41.77 56.03C40.91 56.58 40.04 56.61 39.14 56.12C38.25 55.63 37.8 54.88 37.8 53.86ZM36.94 80.54C32.85 80.55 29.7 78.82 27.5 75.38L66.2 75.38C69.77 75.38 72.81 74.12 75.33 71.6C77.86 69.08 79.12 66.03 79.12 62.47L79.12 28.93C82.56 31.13 84.28 34.28 84.28 38.36L84.28 62.47C84.28 72.45 76.19 80.54 66.2 80.54L36.94 80.54Z" fill="url(#paint_linear_157_188_0)" fill-opacity="1.000000" fill-rule="nonzero"/>
    </g>
</svg>
